<svg xmlns="http://www.w3.org/2000/svg" xmlns:xlink="http://www.w3.org/1999/xlink" width="1587" zoomAndPan="magnify" viewBox="0 0 1190.25 1683.749945" height="2245" preserveAspectRatio="xMidYMid meet" version="1.0"><defs><clipPath id="8c056c771b"><path d="M 382 1353 L 995 1353 L 995 1448.90625 L 382 1448.90625 Z M 382 1353 " clip-rule="nonzero"/></clipPath><clipPath id="8fcbd14d13"><path d="M 605 119.433594 L 658 119.433594 L 658 172 L 605 172 Z M 605 119.433594 " clip-rule="nonzero"/></clipPath></defs><g clip-path="url(#8c056c771b)"><path fill="#2085b7" d="M 994.582031 1401.199219 C 994.582031 1401.980469 994.460938 1402.761719 994.214844 1403.542969 C 993.96875 1404.324219 993.601562 1405.101562 993.109375 1405.882812 C 992.617188 1406.660156 992.007812 1407.433594 991.273438 1408.207031 C 990.539062 1408.980469 989.683594 1409.753906 988.707031 1410.519531 C 987.730469 1411.285156 986.632812 1412.046875 985.414062 1412.808594 C 984.199219 1413.566406 982.863281 1414.320312 981.410156 1415.066406 C 979.957031 1415.816406 978.390625 1416.558594 976.703125 1417.292969 C 975.015625 1418.03125 973.214844 1418.757812 971.300781 1419.480469 C 969.382812 1420.203125 967.355469 1420.917969 965.214844 1421.625 C 963.074219 1422.332031 960.824219 1423.03125 958.464844 1423.71875 C 956.105469 1424.410156 953.640625 1425.089844 951.066406 1425.761719 C 948.492188 1426.429688 945.816406 1427.089844 943.035156 1427.742188 C 940.253906 1428.390625 937.371094 1429.03125 934.390625 1429.660156 C 931.410156 1430.285156 928.328125 1430.902344 925.152344 1431.507812 C 921.980469 1432.113281 918.710938 1432.703125 915.347656 1433.28125 C 911.988281 1433.863281 908.535156 1434.429688 904.996094 1434.980469 C 901.457031 1435.535156 897.832031 1436.074219 894.125 1436.597656 C 890.414062 1437.125 886.625 1437.632812 882.757812 1438.128906 C 878.886719 1438.625 874.941406 1439.105469 870.921875 1439.574219 C 866.898438 1440.039062 862.808594 1440.488281 858.648438 1440.921875 C 854.484375 1441.355469 850.257812 1441.773438 845.964844 1442.175781 C 841.667969 1442.578125 837.316406 1442.964844 832.902344 1443.332031 C 828.484375 1443.703125 824.015625 1444.054688 819.492188 1444.386719 C 814.964844 1444.722656 810.390625 1445.039062 805.765625 1445.335938 C 801.140625 1445.636719 796.472656 1445.917969 791.761719 1446.183594 C 787.046875 1446.445312 782.296875 1446.691406 777.503906 1446.917969 C 772.714844 1447.144531 767.890625 1447.351562 763.035156 1447.542969 C 758.179688 1447.734375 753.296875 1447.902344 748.386719 1448.054688 C 743.480469 1448.210938 738.546875 1448.34375 733.597656 1448.457031 C 728.644531 1448.570312 723.679688 1448.667969 718.695312 1448.746094 C 713.714844 1448.820312 708.726562 1448.878906 703.726562 1448.917969 C 698.726562 1448.957031 693.722656 1448.976562 688.71875 1448.976562 C 683.710938 1448.976562 678.707031 1448.957031 673.707031 1448.917969 C 668.710938 1448.878906 663.71875 1448.820312 658.738281 1448.746094 C 653.753906 1448.667969 648.789062 1448.570312 643.835938 1448.457031 C 638.886719 1448.34375 633.953125 1448.210938 629.046875 1448.054688 C 624.136719 1447.902344 619.253906 1447.734375 614.398438 1447.542969 C 609.542969 1447.351562 604.71875 1447.144531 599.929688 1446.917969 C 595.136719 1446.691406 590.386719 1446.445312 585.671875 1446.183594 C 580.960938 1445.917969 576.292969 1445.636719 571.667969 1445.335938 C 567.042969 1445.039062 562.46875 1444.722656 557.941406 1444.386719 C 553.417969 1444.054688 548.949219 1443.703125 544.53125 1443.332031 C 540.117188 1442.964844 535.765625 1442.578125 531.46875 1442.175781 C 527.175781 1441.773438 522.949219 1441.355469 518.785156 1440.921875 C 514.625 1440.488281 510.535156 1440.039062 506.511719 1439.574219 C 502.492188 1439.105469 498.546875 1438.625 494.679688 1438.128906 C 490.808594 1437.632812 487.019531 1437.125 483.308594 1436.597656 C 479.601562 1436.074219 475.976562 1435.535156 472.4375 1434.980469 C 468.898438 1434.429688 465.445312 1433.863281 462.085938 1433.28125 C 458.722656 1432.703125 455.457031 1432.113281 452.28125 1431.507812 C 449.105469 1430.902344 446.023438 1430.285156 443.042969 1429.660156 C 440.0625 1429.03125 437.179688 1428.390625 434.398438 1427.742188 C 431.617188 1427.089844 428.941406 1426.429688 426.367188 1425.761719 C 423.792969 1425.089844 421.328125 1424.410156 418.96875 1423.71875 C 416.609375 1423.03125 414.359375 1422.332031 412.21875 1421.625 C 410.078125 1420.917969 408.050781 1420.203125 406.132812 1419.480469 C 404.21875 1418.757812 402.417969 1418.03125 400.730469 1417.292969 C 399.042969 1416.558594 397.476562 1415.816406 396.023438 1415.066406 C 394.570312 1414.320312 393.234375 1413.566406 392.019531 1412.808594 C 390.800781 1412.046875 389.703125 1411.285156 388.726562 1410.519531 C 387.75 1409.753906 386.894531 1408.980469 386.160156 1408.207031 C 385.425781 1407.433594 384.816406 1406.660156 384.324219 1405.882812 C 383.832031 1405.101562 383.464844 1404.324219 383.21875 1403.542969 C 382.972656 1402.761719 382.851562 1401.980469 382.851562 1401.199219 C 382.851562 1400.417969 382.972656 1399.636719 383.21875 1398.855469 C 383.464844 1398.074219 383.832031 1397.292969 384.324219 1396.515625 C 384.816406 1395.738281 385.425781 1394.960938 386.160156 1394.1875 C 386.894531 1393.414062 387.75 1392.644531 388.726562 1391.878906 C 389.703125 1391.109375 390.800781 1390.347656 392.019531 1389.589844 C 393.234375 1388.832031 394.570312 1388.078125 396.023438 1387.328125 C 397.476562 1386.582031 399.042969 1385.839844 400.730469 1385.101562 C 402.417969 1384.367188 404.21875 1383.636719 406.132812 1382.914062 C 408.050781 1382.191406 410.078125 1381.480469 412.21875 1380.773438 C 414.359375 1380.066406 416.609375 1379.367188 418.96875 1378.675781 C 421.328125 1377.988281 423.792969 1377.308594 426.367188 1376.636719 C 428.941406 1375.964844 431.617188 1375.304688 434.398438 1374.65625 C 437.179688 1374.003906 440.0625 1373.367188 443.042969 1372.738281 C 446.023438 1372.109375 449.105469 1371.496094 452.28125 1370.890625 C 455.457031 1370.285156 458.722656 1369.695312 462.085938 1369.113281 C 465.445312 1368.535156 468.898438 1367.96875 472.4375 1367.417969 C 475.976562 1366.863281 479.601562 1366.324219 483.308594 1365.800781 C 487.019531 1365.273438 490.808594 1364.761719 494.679688 1364.265625 C 498.546875 1363.773438 502.492188 1363.289062 506.511719 1362.824219 C 510.535156 1362.359375 514.625 1361.910156 518.785156 1361.472656 C 522.949219 1361.039062 527.175781 1360.621094 531.46875 1360.21875 C 535.765625 1359.816406 540.117188 1359.433594 544.53125 1359.0625 C 548.949219 1358.695312 553.417969 1358.34375 557.941406 1358.011719 C 562.46875 1357.675781 567.042969 1357.359375 571.667969 1357.058594 C 576.292969 1356.761719 580.960938 1356.480469 585.671875 1356.214844 C 590.386719 1355.953125 595.136719 1355.707031 599.929688 1355.480469 C 604.71875 1355.253906 609.542969 1355.042969 614.398438 1354.855469 C 619.253906 1354.664062 624.136719 1354.492188 629.046875 1354.339844 C 633.953125 1354.1875 638.886719 1354.054688 643.835938 1353.941406 C 648.789062 1353.824219 653.753906 1353.730469 658.738281 1353.652344 C 663.71875 1353.578125 668.710938 1353.519531 673.707031 1353.480469 C 678.707031 1353.441406 683.710938 1353.421875 688.71875 1353.421875 C 693.722656 1353.421875 698.726562 1353.441406 703.726562 1353.480469 C 708.726562 1353.519531 713.714844 1353.574219 718.695312 1353.652344 C 723.679688 1353.730469 728.644531 1353.824219 733.597656 1353.941406 C 738.546875 1354.054688 743.480469 1354.1875 748.386719 1354.339844 C 753.296875 1354.492188 758.179688 1354.664062 763.035156 1354.855469 C 767.890625 1355.042969 772.714844 1355.253906 777.503906 1355.480469 C 782.296875 1355.707031 787.046875 1355.953125 791.761719 1356.214844 C 796.472656 1356.480469 801.140625 1356.761719 805.765625 1357.058594 C 810.390625 1357.359375 814.964844 1357.675781 819.492188 1358.007812 C 824.015625 1358.34375 828.484375 1358.695312 832.902344 1359.0625 C 837.316406 1359.433594 841.667969 1359.816406 845.964844 1360.21875 C 850.257812 1360.621094 854.484375 1361.039062 858.648438 1361.472656 C 862.808594 1361.910156 866.898438 1362.359375 870.921875 1362.824219 C 874.941406 1363.289062 878.886719 1363.769531 882.757812 1364.265625 C 886.625 1364.761719 890.414062 1365.273438 894.125 1365.800781 C 897.832031 1366.324219 901.457031 1366.863281 904.996094 1367.414062 C 908.535156 1367.96875 911.988281 1368.535156 915.347656 1369.113281 C 918.710938 1369.695312 921.980469 1370.285156 925.152344 1370.890625 C 928.328125 1371.496094 931.410156 1372.109375 934.390625 1372.738281 C 937.371094 1373.367188 940.253906 1374.003906 943.035156 1374.65625 C 945.816406 1375.304688 948.492188 1375.964844 951.066406 1376.636719 C 953.640625 1377.308594 956.105469 1377.988281 958.464844 1378.675781 C 960.824219 1379.367188 963.074219 1380.066406 965.214844 1380.773438 C 967.355469 1381.480469 969.382812 1382.191406 971.300781 1382.914062 C 973.214844 1383.636719 975.015625 1384.367188 976.703125 1385.101562 C 978.390625 1385.839844 979.957031 1386.582031 981.410156 1387.328125 C 982.863281 1388.078125 984.199219 1388.832031 985.414062 1389.589844 C 986.632812 1390.347656 987.730469 1391.109375 988.707031 1391.878906 C 989.683594 1392.644531 990.539062 1393.414062 991.273438 1394.1875 C 992.007812 1394.960938 992.617188 1395.738281 993.109375 1396.515625 C 993.601562 1397.292969 993.96875 1398.074219 994.214844 1398.855469 C 994.460938 1399.636719 994.582031 1400.417969 994.582031 1401.199219 Z M 994.582031 1401.199219 " fill-opacity="1" fill-rule="nonzero"/></g><path fill="#d5e9f2" d="M 908.527344 411.195312 C 829.058594 295.578125 635.769531 295.578125 635.769531 295.578125 C 635.769531 295.578125 442.449219 295.578125 362.996094 411.195312 C 290.039062 517.300781 290.734375 662.300781 290.734375 662.300781 L 361.183594 752.628906 L 910.339844 752.628906 L 980.789062 662.300781 C 980.789062 662.300781 981.484375 517.300781 908.527344 411.195312 Z M 908.527344 411.195312 " fill-opacity="1" fill-rule="nonzero"/><path fill="#a8d7e9" d="M 908.632812 411.195312 C 877.476562 365.910156 828.832031 338.300781 781.199219 321.546875 C 805.839844 336.890625 828.222656 356.382812 845.410156 381.375 C 918.367188 487.5 917.722656 632.480469 917.722656 632.480469 L 847.273438 722.808594 L 338.054688 722.808594 L 361.289062 752.628906 L 910.445312 752.628906 L 980.894531 662.300781 C 980.894531 662.300781 981.589844 517.300781 908.632812 411.195312 Z M 908.632812 411.195312 " fill-opacity="1" fill-rule="nonzero"/><path fill="#002b43" d="M 810.980469 434.691406 C 736.925781 378.675781 534.566406 378.675781 460.546875 434.691406 C 380.132812 495.496094 382.867188 640.632812 382.867188 640.632812 L 888.65625 640.632812 C 888.65625 640.632812 891.390625 495.476562 810.980469 434.691406 Z M 810.980469 434.691406 " fill-opacity="1" fill-rule="nonzero"/><path fill="#000f16" d="M 384.976562 640.617188 C 389.941406 593.277344 406.363281 514.027344 460.546875 473.0625 C 534.601562 417.0625 736.925781 417.0625 810.980469 473.0625 C 865.160156 514.027344 881.585938 593.242188 886.550781 640.617188 L 888.65625 640.617188 C 888.65625 640.617188 891.390625 495.476562 810.980469 434.671875 C 736.925781 378.675781 534.566406 378.675781 460.546875 434.691406 C 380.132812 495.496094 382.867188 640.632812 382.867188 640.632812 Z M 384.976562 640.617188 " fill-opacity="1" fill-rule="nonzero"/><path fill="#d5e9f2" d="M 575.25 268.476562 L 696.292969 268.476562 C 697.003906 268.476562 697.707031 268.546875 698.40625 268.683594 C 699.105469 268.824219 699.78125 269.027344 700.4375 269.300781 C 701.09375 269.574219 701.71875 269.90625 702.3125 270.300781 C 702.902344 270.695312 703.449219 271.144531 703.953125 271.648438 C 704.457031 272.152344 704.90625 272.699219 705.300781 273.289062 C 705.695312 273.882812 706.027344 274.507812 706.300781 275.164062 C 706.574219 275.820312 706.777344 276.5 706.917969 277.195312 C 707.054688 277.894531 707.125 278.597656 707.125 279.308594 L 707.125 317.261719 C 707.125 317.972656 707.054688 318.679688 706.917969 319.375 C 706.777344 320.074219 706.574219 320.75 706.300781 321.40625 C 706.027344 322.066406 705.695312 322.6875 705.300781 323.28125 C 704.90625 323.871094 704.457031 324.417969 703.953125 324.921875 C 703.449219 325.425781 702.902344 325.875 702.3125 326.269531 C 701.71875 326.664062 701.09375 327 700.4375 327.269531 C 699.78125 327.542969 699.105469 327.75 698.40625 327.886719 C 697.707031 328.027344 697.003906 328.09375 696.292969 328.09375 L 575.25 328.09375 C 574.539062 328.09375 573.832031 328.027344 573.136719 327.886719 C 572.4375 327.75 571.761719 327.542969 571.105469 327.269531 C 570.445312 327 569.824219 326.664062 569.230469 326.269531 C 568.640625 325.875 568.09375 325.425781 567.589844 324.921875 C 567.085938 324.417969 566.636719 323.871094 566.242188 323.28125 C 565.847656 322.6875 565.511719 322.066406 565.242188 321.40625 C 564.96875 320.75 564.761719 320.074219 564.625 319.375 C 564.484375 318.679688 564.417969 317.972656 564.417969 317.261719 L 564.417969 279.308594 C 564.417969 278.597656 564.484375 277.894531 564.625 277.195312 C 564.761719 276.5 564.96875 275.820312 565.242188 275.164062 C 565.511719 274.507812 565.847656 273.882812 566.242188 273.289062 C 566.636719 272.699219 567.085938 272.152344 567.589844 271.648438 C 568.09375 271.144531 568.640625 270.695312 569.230469 270.300781 C 569.824219 269.90625 570.445312 269.574219 571.105469 269.300781 C 571.761719 269.027344 572.4375 268.824219 573.136719 268.683594 C 573.832031 268.546875 574.539062 268.476562 575.25 268.476562 Z M 575.25 268.476562 " fill-opacity="1" fill-rule="nonzero"/><path fill="#d5e9f2" d="M 603.550781 297.371094 L 619.800781 145.632812 L 641.484375 145.632812 L 667.992188 298.277344 Z M 603.550781 297.371094 " fill-opacity="1" fill-rule="nonzero"/><g clip-path="url(#8fcbd14d13)"><path fill="#d5e9f2" d="M 657.4375 145.5625 C 657.4375 146.417969 657.394531 147.269531 657.3125 148.121094 C 657.226562 148.972656 657.101562 149.820312 656.933594 150.660156 C 656.769531 151.496094 656.5625 152.328125 656.3125 153.144531 C 656.0625 153.964844 655.777344 154.769531 655.449219 155.558594 C 655.121094 156.351562 654.753906 157.121094 654.351562 157.878906 C 653.949219 158.632812 653.507812 159.363281 653.035156 160.078125 C 652.558594 160.789062 652.050781 161.472656 651.507812 162.136719 C 650.964844 162.796875 650.390625 163.429688 649.785156 164.035156 C 649.179688 164.640625 648.546875 165.214844 647.886719 165.757812 C 647.222656 166.300781 646.539062 166.808594 645.828125 167.285156 C 645.117188 167.757812 644.382812 168.199219 643.628906 168.601562 C 642.875 169.003906 642.101562 169.371094 641.308594 169.699219 C 640.519531 170.027344 639.714844 170.3125 638.894531 170.5625 C 638.078125 170.8125 637.25 171.019531 636.410156 171.183594 C 635.570312 171.351562 634.726562 171.476562 633.875 171.5625 C 633.023438 171.644531 632.167969 171.6875 631.3125 171.6875 C 630.457031 171.6875 629.605469 171.644531 628.753906 171.5625 C 627.902344 171.476562 627.054688 171.351562 626.214844 171.183594 C 625.375 171.019531 624.546875 170.8125 623.730469 170.5625 C 622.910156 170.3125 622.105469 170.027344 621.316406 169.699219 C 620.523438 169.371094 619.753906 169.003906 618.996094 168.601562 C 618.242188 168.199219 617.511719 167.757812 616.796875 167.285156 C 616.085938 166.808594 615.402344 166.300781 614.738281 165.757812 C 614.078125 165.214844 613.445312 164.640625 612.839844 164.035156 C 612.234375 163.429688 611.660156 162.796875 611.117188 162.136719 C 610.574219 161.472656 610.066406 160.789062 609.589844 160.078125 C 609.117188 159.363281 608.675781 158.632812 608.273438 157.878906 C 607.871094 157.121094 607.503906 156.351562 607.175781 155.558594 C 606.847656 154.769531 606.5625 153.964844 606.3125 153.144531 C 606.066406 152.328125 605.855469 151.496094 605.691406 150.660156 C 605.523438 149.820312 605.398438 148.972656 605.3125 148.121094 C 605.230469 147.269531 605.1875 146.417969 605.1875 145.5625 C 605.1875 144.707031 605.230469 143.851562 605.3125 143 C 605.398438 142.148438 605.523438 141.304688 605.691406 140.464844 C 605.855469 139.625 606.066406 138.796875 606.3125 137.976562 C 606.5625 137.160156 606.847656 136.355469 607.175781 135.5625 C 607.503906 134.773438 607.871094 134 608.273438 133.246094 C 608.675781 132.492188 609.117188 131.757812 609.589844 131.046875 C 610.066406 130.335938 610.574219 129.648438 611.117188 128.988281 C 611.660156 128.324219 612.234375 127.691406 612.839844 127.085938 C 613.445312 126.480469 614.078125 125.910156 614.738281 125.367188 C 615.402344 124.824219 616.085938 124.3125 616.796875 123.839844 C 617.511719 123.363281 618.242188 122.921875 618.996094 122.519531 C 619.753906 122.117188 620.523438 121.75 621.316406 121.425781 C 622.105469 121.097656 622.910156 120.808594 623.730469 120.558594 C 624.546875 120.3125 625.375 120.105469 626.214844 119.9375 C 627.054688 119.769531 627.902344 119.644531 628.753906 119.5625 C 629.601562 119.476562 630.457031 119.433594 631.3125 119.433594 C 632.167969 119.433594 633.023438 119.476562 633.875 119.5625 C 634.726562 119.644531 635.570312 119.769531 636.410156 119.9375 C 637.25 120.105469 638.078125 120.3125 638.894531 120.558594 C 639.714844 120.808594 640.519531 121.097656 641.308594 121.425781 C 642.101562 121.75 642.875 122.117188 643.628906 122.519531 C 644.382812 122.921875 645.117188 123.363281 645.828125 123.839844 C 646.539062 124.3125 647.222656 124.824219 647.886719 125.367188 C 648.546875 125.910156 649.179688 126.480469 649.785156 127.085938 C 650.390625 127.691406 650.964844 128.324219 651.507812 128.988281 C 652.050781 129.648438 652.558594 130.335938 653.035156 131.046875 C 653.507812 131.757812 653.949219 132.492188 654.351562 133.246094 C 654.753906 134 655.121094 134.773438 655.449219 135.5625 C 655.777344 136.355469 656.0625 137.160156 656.3125 137.976562 C 656.5625 138.796875 656.769531 139.625 656.933594 140.464844 C 657.101562 141.304688 657.226562 142.148438 657.3125 143 C 657.394531 143.851562 657.4375 144.707031 657.4375 145.5625 Z M 657.4375 145.5625 " fill-opacity="1" fill-rule="nonzero"/></g><path fill="#a8d7e9" d="M 647.597656 125.164062 C 647.835938 125.664062 648.0625 126.167969 648.269531 126.675781 C 648.476562 127.1875 648.671875 127.707031 648.84375 128.230469 C 649.019531 128.75 649.179688 129.28125 649.324219 129.8125 C 649.464844 130.347656 649.589844 130.882812 649.699219 131.425781 C 649.808594 131.964844 649.898438 132.507812 649.972656 133.054688 C 650.046875 133.601562 650.101562 134.152344 650.144531 134.703125 C 650.183594 135.253906 650.203125 135.804688 650.207031 136.355469 C 650.214844 136.90625 650.199219 137.460938 650.171875 138.011719 C 650.140625 138.5625 650.09375 139.109375 650.027344 139.660156 C 649.960938 140.207031 649.878906 140.753906 649.78125 141.296875 C 649.679688 141.839844 649.566406 142.378906 649.429688 142.914062 C 649.296875 143.449219 649.148438 143.980469 648.980469 144.503906 C 648.8125 145.03125 648.628906 145.550781 648.429688 146.066406 C 648.230469 146.578125 648.015625 147.085938 647.78125 147.589844 C 647.550781 148.089844 647.304688 148.582031 647.039062 149.066406 C 646.777344 149.550781 646.5 150.027344 646.207031 150.496094 C 645.914062 150.964844 645.605469 151.421875 645.285156 151.871094 C 644.960938 152.316406 644.625 152.753906 644.277344 153.183594 C 643.925781 153.609375 643.5625 154.023438 643.1875 154.429688 C 642.8125 154.832031 642.425781 155.226562 642.023438 155.605469 C 641.621094 155.984375 641.210938 156.351562 640.785156 156.703125 C 640.363281 157.058594 639.929688 157.398438 639.484375 157.722656 C 639.039062 158.050781 638.582031 158.359375 638.117188 158.660156 C 637.652344 158.957031 637.179688 159.238281 636.695312 159.503906 C 636.214844 159.773438 635.722656 160.023438 635.222656 160.261719 C 634.726562 160.496094 634.21875 160.71875 633.707031 160.921875 C 633.195312 161.125 632.675781 161.316406 632.152344 161.488281 C 631.628906 161.65625 631.097656 161.8125 630.5625 161.953125 C 630.03125 162.089844 629.492188 162.210938 628.949219 162.316406 C 628.40625 162.417969 627.863281 162.507812 627.316406 162.578125 C 626.769531 162.644531 626.21875 162.699219 625.667969 162.734375 C 625.117188 162.769531 624.566406 162.785156 624.015625 162.789062 C 621.050781 162.789062 618.171875 162.296875 615.375 161.316406 C 612.578125 160.332031 610.023438 158.914062 607.714844 157.058594 C 608.144531 157.925781 608.625 158.769531 609.152344 159.589844 C 609.679688 160.40625 610.25 161.191406 610.863281 161.945312 C 611.476562 162.695312 612.132812 163.414062 612.828125 164.09375 C 613.519531 164.773438 614.25 165.414062 615.015625 166.011719 C 615.78125 166.609375 616.578125 167.164062 617.40625 167.675781 C 618.234375 168.183594 619.089844 168.648438 619.96875 169.0625 C 620.847656 169.476562 621.746094 169.839844 622.667969 170.15625 C 623.585938 170.46875 624.519531 170.730469 625.46875 170.941406 C 626.417969 171.152344 627.375 171.308594 628.34375 171.410156 C 629.308594 171.511719 630.277344 171.5625 631.25 171.554688 C 632.222656 171.550781 633.191406 171.492188 634.15625 171.378906 C 635.121094 171.265625 636.078125 171.097656 637.023438 170.878906 C 637.972656 170.65625 638.902344 170.386719 639.820312 170.0625 C 640.738281 169.738281 641.632812 169.363281 642.507812 168.9375 C 643.382812 168.515625 644.230469 168.042969 645.050781 167.523438 C 645.875 167.007812 646.664062 166.445312 647.421875 165.835938 C 648.183594 165.230469 648.90625 164.582031 649.59375 163.894531 C 650.28125 163.207031 650.925781 162.484375 651.53125 161.722656 C 652.136719 160.960938 652.699219 160.171875 653.21875 159.347656 C 653.734375 158.527344 654.207031 157.675781 654.628906 156.800781 C 655.050781 155.925781 655.425781 155.03125 655.75 154.113281 C 656.070312 153.195312 656.34375 152.265625 656.5625 151.316406 C 656.78125 150.371094 656.945312 149.414062 657.058594 148.449219 C 657.171875 147.484375 657.230469 146.515625 657.234375 145.542969 C 657.238281 144.570312 657.1875 143.601562 657.082031 142.632812 C 656.980469 141.667969 656.820312 140.710938 656.609375 139.761719 C 656.398438 138.8125 656.136719 137.878906 655.820312 136.957031 C 655.507812 136.039062 655.140625 135.140625 654.726562 134.261719 C 654.308594 133.382812 653.847656 132.53125 653.335938 131.703125 C 652.824219 130.875 652.269531 130.078125 651.671875 129.3125 C 651.070312 128.550781 650.429688 127.820312 649.75 127.125 C 649.070312 126.433594 648.351562 125.777344 647.597656 125.164062 Z M 647.597656 125.164062 " fill-opacity="1" fill-rule="nonzero"/><path fill="#a8d7e9" d="M 361.183594 752.628906 L 910.339844 752.628906 L 980.789062 662.300781 L 290.734375 662.300781 Z M 361.183594 752.628906 " fill-opacity="1" fill-rule="nonzero"/><path fill="#a8d7e9" d="M 707.125 299.515625 C 707.125 303.328125 704.6875 306.480469 701.691406 306.480469 L 641.1875 306.480469 C 638.191406 306.480469 635.769531 303.398438 635.769531 299.515625 L 635.769531 275.375 C 635.769531 271.558594 638.191406 268.40625 641.1875 268.40625 L 701.761719 268.40625 C 704.757812 268.40625 707.195312 271.488281 707.195312 275.375 Z M 707.125 299.515625 " fill-opacity="1" fill-rule="nonzero"/><path fill="#ffffff" d="M 527.597656 345.410156 C 518.804688 328.566406 478.972656 338.199219 465.960938 344.347656 C 455.339844 349.363281 436.09375 360.492188 423.832031 372.214844 C 413.996094 380.0625 405.335938 389.042969 397.847656 399.160156 C 391.578125 407.605469 379.734375 425.007812 387.398438 436.101562 C 395.738281 448.292969 409.847656 437.71875 416.867188 430.683594 C 435.101562 412.34375 449.101562 392.714844 473.835938 381.53125 C 485.992188 376.117188 538.046875 365.265625 527.597656 345.410156 Z M 527.597656 345.410156 " fill-opacity="1" fill-rule="nonzero"/><path fill="#ffffff" d="M 620.8125 130.53125 C 608.480469 133.507812 613.199219 159.285156 628.371094 145.40625 C 640.4375 134.378906 627.792969 127.429688 620.8125 130.53125 Z M 620.8125 130.53125 " fill-opacity="1" fill-rule="nonzero"/><path fill="#d5e9f2" d="M 1010.03125 957.210938 L 902.746094 772.132812 L 368.777344 772.132812 L 261.460938 957.210938 C 261.460938 957.210938 266.039062 1034.355469 291.9375 1104.859375 C 331.734375 1213.246094 369.667969 1256.617188 369.667969 1256.617188 L 501.019531 1307.300781 L 634.570312 1319.582031 L 634.570312 1319.808594 C 634.570312 1319.808594 635.457031 1319.683594 635.769531 1319.683594 C 636.085938 1319.683594 636.957031 1319.808594 636.957031 1319.808594 L 636.957031 1319.582031 L 770.503906 1307.300781 L 901.859375 1256.582031 C 901.859375 1256.582031 949.527344 1195.152344 979.585938 1104.824219 C 1003.324219 1033.621094 1010.03125 957.210938 1010.03125 957.210938 Z M 1010.03125 957.210938 " fill-opacity="1" fill-rule="nonzero"/><path fill="#a8d7e9" d="M 902.746094 772.132812 L 776.304688 772.132812 L 883.625 957.210938 C 883.625 957.210938 876.867188 1033.585938 853.144531 1104.859375 C 823.066406 1195.1875 809.605469 1231.171875 775.414062 1256.617188 C 747.183594 1277.691406 644.0625 1307.300781 644.0625 1307.300781 L 572.53125 1313.886719 L 634.570312 1319.582031 L 634.570312 1319.808594 C 634.570312 1319.808594 635.457031 1319.683594 635.769531 1319.683594 C 636.085938 1319.683594 636.957031 1319.808594 636.957031 1319.808594 L 636.957031 1319.582031 L 770.503906 1307.300781 L 901.859375 1256.582031 C 901.859375 1256.582031 949.527344 1195.152344 979.585938 1104.824219 C 1003.324219 1033.621094 1010.03125 957.210938 1010.03125 957.210938 Z M 902.746094 772.132812 " fill-opacity="1" fill-rule="nonzero"/><path fill="#a8d7e9" d="M 261.460938 957.246094 L 1010.082031 957.246094 L 980.894531 1012.757812 Z M 261.460938 957.246094 " fill-opacity="1" fill-rule="nonzero"/><path fill="#ffffff" d="M 411.726562 1080.003906 C 409.601562 1053.148438 427.941406 1016.117188 397.273438 1001.921875 C 381.597656 994.640625 354.914062 991.644531 342.722656 1007.304688 C 340.519531 1010.285156 338.804688 1013.527344 337.582031 1017.027344 C 336.363281 1020.527344 335.691406 1024.132812 335.566406 1027.839844 C 331.160156 1047 341.488281 1075.023438 346.292969 1092.285156 C 351.972656 1112.503906 371.636719 1183.601562 407.84375 1164.234375 C 432.539062 1150.964844 413.3125 1099.894531 411.726562 1080.003906 Z M 411.726562 1080.003906 " fill-opacity="1" fill-rule="nonzero"/><path fill="#ffffff" d="M 451.105469 810.785156 C 434.820312 787.550781 411.917969 795.300781 395.617188 812.160156 C 359.320312 834.246094 320.726562 924.484375 375.660156 933.316406 C 407.269531 938.402344 416.96875 899.875 427.679688 879.042969 C 437.503906 859.9375 467.09375 833.546875 451.105469 810.785156 Z M 451.105469 810.785156 " fill-opacity="1" fill-rule="nonzero"/><path fill="#d5e9f2" d="M 348.210938 772.132812 C 348.210938 772.132812 109.277344 737.753906 73.328125 752.628906 C 37.382812 767.5 25.867188 819.023438 113.230469 871.675781 C 197.996094 922.777344 247.335938 936.695312 247.335938 936.695312 Z M 348.210938 772.132812 " fill-opacity="1" fill-rule="nonzero"/><path fill="#a8d7e9" d="M 70.523438 752.628906 C 74.128906 751.128906 109.519531 747.578125 116.675781 747.226562 C 128.382812 774.191406 84.648438 800.941406 138.429688 833.375 C 196.617188 868.453125 240.804688 888.65625 281.246094 881.394531 L 247.371094 936.695312 C 247.371094 936.695312 197.996094 922.761719 113.265625 871.675781 C 25.867188 819.023438 34.578125 767.570312 70.523438 752.628906 Z M 70.523438 752.628906 " fill-opacity="1" fill-rule="nonzero"/><path fill="#d5e9f2" d="M 368.152344 1272.625 C 368.152344 1272.625 415.820312 1396.984375 455.757812 1401.058594 C 495.691406 1405.136719 496.859375 1319.878906 496.859375 1319.878906 Z M 368.152344 1272.625 " fill-opacity="1" fill-rule="nonzero"/><path fill="#a8d7e9" d="M 464.726562 1307.582031 C 464.273438 1319.652344 460.582031 1378.503906 432.503906 1385.957031 C 440.726562 1394.527344 449.066406 1400.242188 457.113281 1401.058594 C 497.050781 1405.117188 498.21875 1319.875 498.21875 1319.875 Z M 464.726562 1307.582031 " fill-opacity="1" fill-rule="nonzero"/><path fill="#d5e9f2" d="M 784.054688 1319.875 C 784.054688 1319.875 845.011719 1413.582031 923.59375 1394.003906 C 956.457031 1385.800781 904.628906 1272.625 904.628906 1272.625 Z M 784.054688 1319.875 " fill-opacity="1" fill-rule="nonzero"/><path fill="#a8d7e9" d="M 904.628906 1272.625 L 871.917969 1285.441406 C 885.101562 1318.535156 905.914062 1379.914062 882.054688 1385.871094 C 875.832031 1387.425781 869.515625 1388.300781 863.105469 1388.5 C 881.289062 1396.128906 901.769531 1399.441406 923.59375 1394.003906 C 956.457031 1385.800781 904.628906 1272.625 904.628906 1272.625 Z M 904.628906 1272.625 " fill-opacity="1" fill-rule="nonzero"/><path fill="#3aedb1" d="M 707.230469 560.476562 C 706.953125 560.472656 706.679688 560.492188 706.40625 560.542969 C 706.132812 560.589844 705.863281 560.664062 705.605469 560.761719 C 705.347656 560.863281 705.101562 560.988281 704.867188 561.132812 C 704.632812 561.28125 704.414062 561.453125 704.210938 561.640625 C 704.007812 561.832031 703.828125 562.039062 703.667969 562.265625 C 703.507812 562.492188 703.367188 562.730469 703.253906 562.984375 C 703.140625 563.238281 703.050781 563.496094 702.988281 563.769531 C 702.921875 564.039062 702.886719 564.3125 702.875 564.589844 C 702.875 564.851562 702.128906 583.851562 690.039062 593.816406 C 678.511719 603.324219 657.59375 606.511719 647.441406 606.476562 C 637.949219 606.894531 616.371094 603.324219 604.824219 593.816406 C 592.753906 583.851562 591.988281 564.851562 591.988281 564.589844 C 591.980469 564.3125 591.945312 564.035156 591.882812 563.765625 C 591.824219 563.492188 591.734375 563.230469 591.621094 562.972656 C 591.507812 562.71875 591.371094 562.480469 591.210938 562.25 C 591.050781 562.023438 590.867188 561.816406 590.664062 561.625 C 590.464844 561.433594 590.242188 561.261719 590.007812 561.113281 C 589.773438 560.964844 589.523438 560.839844 589.265625 560.742188 C 589.003906 560.640625 588.738281 560.570312 588.460938 560.523438 C 588.1875 560.476562 587.910156 560.457031 587.632812 560.464844 C 587.355469 560.472656 587.078125 560.507812 586.808594 560.570312 C 586.535156 560.632812 586.273438 560.722656 586.019531 560.835938 C 585.765625 560.949219 585.523438 561.085938 585.296875 561.25 C 585.070312 561.410156 584.863281 561.59375 584.671875 561.796875 C 584.480469 562 584.3125 562.21875 584.164062 562.453125 C 584.015625 562.691406 583.890625 562.9375 583.792969 563.199219 C 583.695312 563.460938 583.625 563.726562 583.578125 564.003906 C 583.53125 564.277344 583.511719 564.554688 583.523438 564.832031 C 583.523438 565.773438 584.324219 587.875 599.441406 600.347656 C 614.855469 613.0625 634.742188 614.996094 645.421875 614.996094 C 658.167969 614.996094 680.027344 613.0625 695.441406 600.347656 C 710.539062 587.875 711.324219 565.773438 711.359375 564.832031 C 711.363281 564.554688 711.34375 564.277344 711.296875 564.003906 C 711.25 563.730469 711.175781 563.460938 711.078125 563.203125 C 710.976562 562.941406 710.851562 562.695312 710.703125 562.460938 C 710.554688 562.222656 710.386719 562.003906 710.195312 561.804688 C 710.003906 561.601562 709.792969 561.417969 709.566406 561.257812 C 709.339844 561.097656 709.097656 560.960938 708.84375 560.847656 C 708.589844 560.734375 708.328125 560.644531 708.054688 560.582031 C 707.785156 560.519531 707.507812 560.488281 707.230469 560.476562 Z M 707.230469 560.476562 " fill-opacity="1" fill-rule="nonzero"/><path fill="#3aedb1" d="M 553.84375 524.5625 C 553.449219 524.5625 553.058594 524.527344 552.667969 524.449219 C 552.28125 524.371094 551.90625 524.257812 551.539062 524.109375 C 551.171875 523.960938 550.824219 523.777344 550.496094 523.558594 C 550.164062 523.339844 549.859375 523.09375 549.578125 522.8125 C 549.296875 522.535156 549.042969 522.234375 548.820312 521.90625 C 548.597656 521.582031 548.410156 521.234375 548.253906 520.871094 C 548.097656 520.507812 547.980469 520.132812 547.898438 519.746094 C 547.816406 519.359375 547.773438 518.96875 547.765625 518.570312 C 547.40625 513.332031 545.847656 508.472656 543.097656 503.992188 C 537.335938 494.832031 527.128906 490.183594 512.777344 490.183594 L 512.5 490.183594 C 481.515625 490.320312 477.265625 516.308594 477.089844 517.386719 C 477.035156 517.78125 476.9375 518.167969 476.804688 518.542969 C 476.671875 518.917969 476.503906 519.277344 476.300781 519.617188 C 476.097656 519.960938 475.863281 520.277344 475.597656 520.574219 C 475.328125 520.871094 475.035156 521.136719 474.71875 521.375 C 474.398438 521.613281 474.058594 521.820312 473.699219 521.988281 C 473.339844 522.160156 472.96875 522.296875 472.582031 522.394531 C 472.195312 522.492188 471.804688 522.550781 471.40625 522.570312 C 471.011719 522.59375 470.613281 522.574219 470.21875 522.515625 C 469.828125 522.460938 469.441406 522.363281 469.066406 522.230469 C 468.691406 522.097656 468.332031 521.929688 467.992188 521.726562 C 467.648438 521.523438 467.328125 521.289062 467.035156 521.023438 C 466.738281 520.753906 466.472656 520.464844 466.234375 520.144531 C 465.996094 519.824219 465.789062 519.484375 465.617188 519.125 C 465.445312 518.765625 465.3125 518.394531 465.214844 518.007812 C 465.117188 517.621094 465.058594 517.230469 465.035156 516.832031 C 465.015625 516.4375 465.035156 516.039062 465.089844 515.644531 C 467.042969 502.738281 479.441406 478.269531 512.445312 478.128906 L 512.792969 478.128906 C 558.914062 478.128906 559.90625 518.101562 559.90625 518.503906 C 559.910156 518.902344 559.875 519.296875 559.804688 519.6875 C 559.730469 520.078125 559.621094 520.457031 559.472656 520.828125 C 559.324219 521.195312 559.140625 521.546875 558.921875 521.882812 C 558.707031 522.214844 558.457031 522.523438 558.179688 522.808594 C 557.902344 523.09375 557.597656 523.347656 557.269531 523.574219 C 556.941406 523.796875 556.59375 523.988281 556.230469 524.144531 C 555.863281 524.300781 555.484375 524.421875 555.09375 524.503906 C 554.707031 524.585938 554.3125 524.628906 553.914062 524.632812 Z M 553.84375 524.5625 " fill-opacity="1" fill-rule="nonzero"/><path fill="#3aedb1" d="M 800.566406 524.5625 C 800.167969 524.566406 799.777344 524.527344 799.390625 524.453125 C 799 524.375 798.625 524.261719 798.257812 524.113281 C 797.890625 523.964844 797.542969 523.78125 797.214844 523.5625 C 796.886719 523.34375 796.578125 523.097656 796.296875 522.816406 C 796.015625 522.539062 795.765625 522.238281 795.542969 521.910156 C 795.320312 521.582031 795.132812 521.238281 794.980469 520.875 C 794.828125 520.507812 794.710938 520.132812 794.628906 519.746094 C 794.550781 519.359375 794.507812 518.96875 794.503906 518.570312 C 794.128906 513.332031 792.566406 508.472656 789.820312 503.992188 C 784.054688 494.832031 773.867188 490.183594 759.515625 490.183594 L 759.234375 490.183594 C 728.269531 490.320312 724.003906 516.308594 723.828125 517.386719 C 723.769531 517.78125 723.675781 518.167969 723.542969 518.542969 C 723.410156 518.917969 723.242188 519.277344 723.039062 519.617188 C 722.835938 519.960938 722.597656 520.277344 722.332031 520.574219 C 722.066406 520.871094 721.773438 521.136719 721.453125 521.375 C 721.136719 521.613281 720.796875 521.820312 720.4375 521.988281 C 720.078125 522.160156 719.707031 522.296875 719.320312 522.394531 C 718.933594 522.492188 718.542969 522.550781 718.144531 522.570312 C 717.746094 522.59375 717.351562 522.574219 716.957031 522.515625 C 716.5625 522.460938 716.179688 522.363281 715.804688 522.230469 C 715.429688 522.097656 715.070312 521.929688 714.726562 521.726562 C 714.386719 521.523438 714.066406 521.289062 713.769531 521.023438 C 713.476562 520.753906 713.207031 520.464844 712.96875 520.144531 C 712.730469 519.824219 712.527344 519.484375 712.355469 519.125 C 712.183594 518.765625 712.050781 518.394531 711.953125 518.007812 C 711.855469 517.621094 711.792969 517.230469 711.773438 516.832031 C 711.753906 516.4375 711.769531 516.039062 711.828125 515.644531 C 713.761719 502.617188 726.144531 478.234375 759.234375 478.058594 L 759.582031 478.058594 C 805.703125 478.058594 806.609375 518.03125 806.609375 518.433594 C 806.613281 518.832031 806.578125 519.226562 806.503906 519.617188 C 806.433594 520.007812 806.320312 520.386719 806.171875 520.757812 C 806.027344 521.128906 805.84375 521.480469 805.625 521.8125 C 805.40625 522.144531 805.160156 522.453125 804.882812 522.738281 C 804.605469 523.023438 804.300781 523.277344 803.972656 523.503906 C 803.644531 523.730469 803.296875 523.917969 802.929688 524.074219 C 802.566406 524.230469 802.1875 524.351562 801.796875 524.433594 C 801.410156 524.515625 801.015625 524.558594 800.617188 524.5625 Z M 800.566406 524.5625 " fill-opacity="1" fill-rule="nonzero"/><path fill="#2a56f4" d="M 304.773438 591.65625 L 19.390625 827.695312 L 19.652344 828.007812 C 3.054688 845.515625 0.492188 871.273438 14.425781 888.238281 C 28.359375 905.203125 54.273438 907.398438 74.566406 894.441406 L 74.824219 894.753906 L 360.226562 658.710938 Z M 304.773438 591.65625 " fill-opacity="1" fill-rule="nonzero"/><path fill="#0643f2" d="M 349.429688 645.441406 L 85.519531 863.644531 L 85.222656 863.332031 C 64.933594 876.34375 39.121094 874.097656 25.101562 857.132812 C 23.621094 855.324219 22.308594 853.402344 21.164062 851.363281 C 20.019531 849.328125 19.058594 847.203125 18.285156 845 C 17.511719 842.792969 16.933594 840.539062 16.554688 838.230469 C 16.175781 835.925781 16 833.605469 16.027344 831.265625 C 2.496094 848.527344 1.136719 871.867188 14.183594 887.648438 C 28.203125 904.613281 54.011719 906.804688 74.304688 893.828125 L 74.566406 894.160156 L 359.964844 658.101562 Z M 349.429688 645.441406 " fill-opacity="1" fill-rule="nonzero"/><path fill="#2a56f4" d="M 602.660156 376.414062 C 605.054688 378.808594 607.390625 381.261719 609.664062 383.773438 C 611.9375 386.28125 614.152344 388.847656 616.300781 391.464844 C 618.449219 394.085938 620.53125 396.753906 622.550781 399.476562 C 624.566406 402.195312 626.515625 404.964844 628.398438 407.78125 C 630.28125 410.597656 632.09375 413.457031 633.832031 416.363281 C 635.574219 419.269531 637.246094 422.214844 638.839844 425.203125 C 640.4375 428.191406 641.960938 431.214844 643.410156 434.277344 C 644.855469 437.339844 646.230469 440.4375 647.527344 443.566406 C 648.820312 446.695312 650.039062 449.855469 651.179688 453.046875 C 652.324219 456.234375 653.386719 459.449219 654.367188 462.691406 C 655.351562 465.933594 656.253906 469.199219 657.078125 472.484375 C 657.902344 475.769531 658.644531 479.074219 659.304688 482.394531 C 659.964844 485.71875 660.542969 489.054688 661.039062 492.40625 C 661.539062 495.757812 661.953125 499.117188 662.285156 502.488281 C 662.617188 505.859375 662.863281 509.238281 663.03125 512.621094 C 663.199219 516.003906 663.28125 519.390625 663.28125 522.777344 C 663.28125 526.164062 663.199219 529.550781 663.03125 532.933594 C 662.863281 536.316406 662.617188 539.695312 662.285156 543.066406 C 661.953125 546.4375 661.539062 549.796875 661.039062 553.148438 C 660.542969 556.5 659.964844 559.835938 659.304688 563.160156 C 658.644531 566.480469 657.902344 569.785156 657.078125 573.070312 C 656.253906 576.359375 655.351562 579.621094 654.367188 582.863281 C 653.386719 586.105469 652.324219 589.320312 651.179688 592.511719 C 650.039062 595.699219 648.820312 598.859375 647.527344 601.988281 C 646.230469 605.117188 644.855469 608.214844 643.410156 611.277344 C 641.960938 614.339844 640.4375 617.363281 638.839844 620.351562 C 637.246094 623.339844 635.574219 626.285156 633.832031 629.191406 C 632.09375 632.097656 630.28125 634.957031 628.398438 637.773438 C 626.515625 640.589844 624.566406 643.359375 622.550781 646.082031 C 620.53125 648.800781 618.449219 651.472656 616.300781 654.089844 C 614.152344 656.707031 611.9375 659.273438 609.664062 661.78125 C 607.390625 664.292969 605.054688 666.746094 602.660156 669.140625 C 600.265625 671.535156 597.8125 673.871094 595.300781 676.144531 C 592.792969 678.421875 590.226562 680.632812 587.609375 682.78125 C 584.992188 684.929688 582.320312 687.015625 579.601562 689.03125 C 576.878906 691.050781 574.109375 693 571.292969 694.882812 C 568.476562 696.765625 565.617188 698.574219 562.710938 700.316406 C 559.804688 702.058594 556.859375 703.726562 553.871094 705.324219 C 550.886719 706.921875 547.859375 708.445312 544.796875 709.894531 C 541.738281 711.339844 538.640625 712.714844 535.511719 714.011719 C 532.382812 715.304688 529.222656 716.523438 526.03125 717.667969 C 522.84375 718.808594 519.628906 719.871094 516.386719 720.851562 C 513.144531 721.835938 509.882812 722.738281 506.597656 723.5625 C 503.308594 724.386719 500.007812 725.128906 496.683594 725.789062 C 493.363281 726.449219 490.023438 727.027344 486.675781 727.527344 C 483.324219 728.023438 479.964844 728.4375 476.59375 728.769531 C 473.222656 729.101562 469.84375 729.351562 466.460938 729.515625 C 463.078125 729.683594 459.691406 729.765625 456.304688 729.765625 C 452.917969 729.765625 449.53125 729.683594 446.148438 729.515625 C 442.765625 729.351562 439.390625 729.101562 436.019531 728.769531 C 432.648438 728.4375 429.285156 728.023438 425.933594 727.527344 C 422.585938 727.027344 419.25 726.449219 415.925781 725.789062 C 412.605469 725.128906 409.300781 724.386719 406.015625 723.5625 C 402.726562 722.738281 399.464844 721.835938 396.222656 720.851562 C 392.980469 719.871094 389.765625 718.808594 386.578125 717.667969 C 383.386719 716.523438 380.226562 715.304688 377.097656 714.011719 C 373.96875 712.714844 370.875 711.339844 367.8125 709.894531 C 364.75 708.445312 361.726562 706.921875 358.738281 705.324219 C 355.75 703.726562 352.804688 702.058594 349.898438 700.316406 C 346.992188 698.574219 344.132812 696.765625 341.316406 694.882812 C 338.5 693 335.730469 691.050781 333.007812 689.03125 C 330.289062 687.015625 327.621094 684.929688 325 682.78125 C 322.382812 680.632812 319.820312 678.421875 317.308594 676.144531 C 314.796875 673.871094 312.347656 671.535156 309.949219 669.140625 C 307.554688 666.746094 305.222656 664.292969 302.945312 661.78125 C 300.671875 659.273438 298.460938 656.707031 296.3125 654.089844 C 294.160156 651.472656 292.078125 648.800781 290.0625 646.082031 C 288.042969 643.359375 286.09375 640.589844 284.210938 637.773438 C 282.328125 634.957031 280.515625 632.097656 278.777344 629.191406 C 277.035156 626.285156 275.367188 623.339844 273.769531 620.351562 C 272.171875 617.363281 270.648438 614.339844 269.203125 611.277344 C 267.753906 608.214844 266.378906 605.117188 265.085938 601.988281 C 263.789062 598.859375 262.570312 595.699219 261.429688 592.511719 C 260.285156 589.320312 259.226562 586.105469 258.242188 582.863281 C 257.257812 579.621094 256.355469 576.359375 255.53125 573.070312 C 254.710938 569.785156 253.96875 566.480469 253.304688 563.160156 C 252.644531 559.835938 252.066406 556.5 251.570312 553.148438 C 251.074219 549.796875 250.65625 546.4375 250.324219 543.066406 C 249.992188 539.695312 249.746094 536.316406 249.578125 532.933594 C 249.414062 529.550781 249.328125 526.164062 249.328125 522.777344 C 249.328125 519.390625 249.414062 516.003906 249.578125 512.621094 C 249.746094 509.238281 249.992188 505.859375 250.324219 502.488281 C 250.65625 499.117188 251.074219 495.757812 251.570312 492.40625 C 252.066406 489.054688 252.644531 485.71875 253.304688 482.394531 C 253.96875 479.074219 254.710938 475.769531 255.53125 472.484375 C 256.355469 469.199219 257.257812 465.933594 258.242188 462.691406 C 259.226562 459.449219 260.289062 456.234375 261.429688 453.046875 C 262.570312 449.855469 263.789062 446.695312 265.085938 443.566406 C 266.378906 440.4375 267.753906 437.339844 269.203125 434.277344 C 270.648438 431.214844 272.171875 428.191406 273.769531 425.203125 C 275.367188 422.214844 277.035156 419.269531 278.777344 416.363281 C 280.515625 413.457031 282.328125 410.597656 284.210938 407.78125 C 286.09375 404.964844 288.042969 402.195312 290.0625 399.476562 C 292.078125 396.753906 294.160156 394.085938 296.3125 391.464844 C 298.460938 388.847656 300.671875 386.28125 302.945312 383.773438 C 305.222656 381.261719 307.554688 378.808594 309.949219 376.414062 C 312.347656 374.019531 314.796875 371.683594 317.308594 369.410156 C 319.820312 367.132812 322.382812 364.921875 325 362.773438 C 327.621094 360.625 330.289062 358.542969 333.007812 356.523438 C 335.730469 354.503906 338.5 352.554688 341.316406 350.671875 C 344.132812 348.792969 346.992188 346.980469 349.898438 345.238281 C 352.804688 343.496094 355.75 341.828125 358.738281 340.230469 C 361.726562 338.632812 364.75 337.109375 367.8125 335.664062 C 370.875 334.214844 373.96875 332.839844 377.097656 331.546875 C 380.226562 330.25 383.386719 329.03125 386.578125 327.890625 C 389.765625 326.746094 392.980469 325.683594 396.222656 324.703125 C 399.464844 323.71875 402.726562 322.816406 406.015625 321.992188 C 409.300781 321.167969 412.605469 320.425781 415.925781 319.765625 C 419.25 319.105469 422.585938 318.527344 425.933594 318.03125 C 429.285156 317.53125 432.648438 317.117188 436.019531 316.785156 C 439.390625 316.453125 442.765625 316.203125 446.148438 316.039062 C 449.53125 315.871094 452.917969 315.789062 456.304688 315.789062 C 459.691406 315.789062 463.078125 315.871094 466.460938 316.039062 C 469.84375 316.203125 473.222656 316.453125 476.59375 316.785156 C 479.964844 317.117188 483.324219 317.53125 486.675781 318.03125 C 490.023438 318.527344 493.363281 319.105469 496.683594 319.765625 C 500.007812 320.425781 503.308594 321.167969 506.597656 321.992188 C 509.882812 322.816406 513.144531 323.71875 516.386719 324.703125 C 519.628906 325.6875 522.84375 326.746094 526.03125 327.890625 C 529.222656 329.03125 532.382812 330.25 535.511719 331.546875 C 538.640625 332.839844 541.734375 334.214844 544.796875 335.664062 C 547.859375 337.109375 550.886719 338.632812 553.871094 340.230469 C 556.859375 341.828125 559.804688 343.496094 562.710938 345.238281 C 565.617188 346.980469 568.476562 348.792969 571.292969 350.671875 C 574.109375 352.554688 576.878906 354.503906 579.601562 356.523438 C 582.320312 358.539062 584.992188 360.625 587.609375 362.773438 C 590.226562 364.921875 592.792969 367.132812 595.300781 369.410156 C 597.8125 371.683594 600.265625 374.019531 602.660156 376.414062 Z M 602.660156 376.414062 " fill-opacity="1" fill-rule="nonzero"/><path fill="#0643f2" d="M 655.050781 463.480469 C 655.664062 466.695312 656.199219 469.921875 656.660156 473.164062 C 657.121094 476.40625 657.503906 479.652344 657.808594 482.914062 C 658.113281 486.171875 658.34375 489.4375 658.492188 492.703125 C 658.644531 495.972656 658.71875 499.246094 658.710938 502.519531 C 658.707031 505.792969 658.625 509.0625 658.46875 512.332031 C 658.308594 515.601562 658.070312 518.863281 657.757812 522.121094 C 657.441406 525.378906 657.050781 528.628906 656.582031 531.867188 C 656.117188 535.105469 655.570312 538.332031 654.949219 541.546875 C 654.328125 544.761719 653.632812 547.957031 652.859375 551.136719 C 652.085938 554.316406 651.238281 557.476562 650.316406 560.617188 C 649.394531 563.757812 648.398438 566.875 647.324219 569.96875 C 646.253906 573.0625 645.113281 576.125 643.898438 579.164062 C 642.679688 582.203125 641.394531 585.210938 640.035156 588.191406 C 638.675781 591.167969 637.25 594.109375 635.75 597.019531 C 634.253906 599.929688 632.6875 602.804688 631.050781 605.640625 C 629.417969 608.476562 627.71875 611.269531 625.949219 614.023438 C 624.183594 616.78125 622.351562 619.492188 620.457031 622.160156 C 618.5625 624.828125 616.605469 627.449219 614.582031 630.023438 C 612.5625 632.601562 610.484375 635.125 608.34375 637.601562 C 606.207031 640.078125 604.007812 642.503906 601.753906 644.875 C 599.5 647.25 597.191406 649.566406 594.824219 651.828125 C 592.460938 654.09375 590.042969 656.296875 587.574219 658.445312 C 585.105469 660.59375 582.585938 662.683594 580.019531 664.710938 C 577.453125 666.742188 574.835938 668.707031 572.175781 670.613281 C 569.515625 672.515625 566.808594 674.359375 564.058594 676.136719 C 561.3125 677.910156 558.523438 679.621094 555.691406 681.265625 C 552.863281 682.910156 549.996094 684.488281 547.089844 685.996094 C 544.1875 687.503906 541.25 688.941406 538.277344 690.3125 C 535.304688 691.679688 532.300781 692.976562 529.265625 694.203125 C 526.230469 695.429688 523.167969 696.585938 520.082031 697.664062 C 516.992188 698.746094 513.878906 699.753906 510.742188 700.6875 C 507.605469 701.621094 504.449219 702.480469 501.269531 703.265625 C 498.09375 704.046875 494.898438 704.757812 491.6875 705.386719 C 488.476562 706.019531 485.253906 706.578125 482.015625 707.054688 C 478.777344 707.535156 475.53125 707.9375 472.273438 708.265625 C 469.019531 708.589844 465.753906 708.835938 462.488281 709.007812 C 459.21875 709.179688 455.949219 709.273438 452.675781 709.289062 C 449.402344 709.304688 446.132812 709.242188 442.863281 709.101562 C 439.59375 708.960938 436.328125 708.746094 433.066406 708.453125 C 429.808594 708.15625 426.558594 707.785156 423.316406 707.335938 C 420.074219 706.890625 416.84375 706.363281 413.628906 705.761719 C 410.410156 705.160156 407.210938 704.484375 404.023438 703.730469 C 400.839844 702.976562 397.675781 702.148438 394.53125 701.242188 C 391.382812 700.339844 388.261719 699.363281 385.164062 698.3125 C 382.0625 697.257812 378.992188 696.136719 375.945312 694.9375 C 372.898438 693.738281 369.882812 692.472656 366.898438 691.128906 C 363.914062 689.789062 360.960938 688.378906 358.042969 686.898438 C 355.121094 685.417969 352.238281 683.871094 349.394531 682.253906 C 346.550781 680.636719 343.742188 678.953125 340.980469 677.203125 C 338.214844 675.453125 335.492188 673.636719 332.8125 671.757812 C 330.132812 669.878906 327.5 667.9375 324.910156 665.933594 C 322.324219 663.929688 319.785156 661.863281 317.296875 659.738281 C 314.804688 657.613281 312.367188 655.433594 309.984375 653.191406 C 307.597656 650.953125 305.265625 648.65625 302.988281 646.304688 C 300.710938 643.957031 298.492188 641.550781 296.328125 639.097656 C 294.164062 636.640625 292.0625 634.132812 290.015625 631.578125 C 287.972656 629.023438 285.988281 626.417969 284.070312 623.769531 C 282.148438 621.121094 280.289062 618.425781 278.496094 615.6875 C 276.703125 612.949219 274.976562 610.171875 273.316406 607.351562 C 271.65625 604.53125 270.0625 601.671875 268.535156 598.777344 C 267.007812 595.882812 265.550781 592.953125 264.164062 589.988281 C 262.777344 587.023438 261.464844 584.027344 260.21875 581 C 258.972656 577.972656 257.800781 574.917969 256.699219 571.835938 C 255.601562 568.753906 254.574219 565.648438 253.621094 562.515625 C 254.28125 565.953125 255.03125 569.371094 255.863281 572.769531 C 256.699219 576.171875 257.617188 579.546875 258.625 582.898438 C 259.628906 586.25 260.71875 589.574219 261.894531 592.875 C 263.066406 596.171875 264.324219 599.4375 265.664062 602.667969 C 267.003906 605.902344 268.425781 609.101562 269.925781 612.261719 C 271.429688 615.421875 273.007812 618.542969 274.667969 621.625 C 276.328125 624.707031 278.066406 627.746094 279.878906 630.738281 C 281.695312 633.730469 283.582031 636.675781 285.546875 639.574219 C 287.511719 642.472656 289.546875 645.316406 291.652344 648.109375 C 293.761719 650.90625 295.9375 653.644531 298.1875 656.328125 C 300.433594 659.011719 302.746094 661.636719 305.125 664.203125 C 307.507812 666.769531 309.949219 669.273438 312.457031 671.714844 C 314.964844 674.15625 317.53125 676.535156 320.15625 678.847656 C 322.785156 681.160156 325.46875 683.402344 328.210938 685.578125 C 330.953125 687.753906 333.746094 689.859375 336.59375 691.894531 C 339.445312 693.929688 342.339844 695.890625 345.289062 697.777344 C 348.234375 699.664062 351.230469 701.476562 354.269531 703.210938 C 357.308594 704.945312 360.390625 706.605469 363.511719 708.183594 C 366.636719 709.761719 369.796875 711.261719 372.996094 712.679688 C 376.195312 714.097656 379.429688 715.433594 382.699219 716.691406 C 385.964844 717.945312 389.261719 719.117188 392.589844 720.203125 C 395.914062 721.289062 399.265625 722.292969 402.644531 723.210938 C 406.023438 724.128906 409.421875 724.960938 412.839844 725.703125 C 416.261719 726.449219 419.695312 727.109375 423.148438 727.679688 C 426.601562 728.25 430.066406 728.730469 433.546875 729.128906 C 437.023438 729.523438 440.507812 729.828125 444 730.046875 C 447.496094 730.265625 450.992188 730.394531 454.488281 730.4375 C 457.988281 730.476562 461.488281 730.429688 464.984375 730.292969 C 468.484375 730.15625 471.972656 729.929688 475.460938 729.617188 C 478.945312 729.304688 482.421875 728.902344 485.886719 728.410156 C 489.351562 727.921875 492.804688 727.34375 496.238281 726.679688 C 499.675781 726.015625 503.09375 725.261719 506.492188 724.425781 C 509.886719 723.585938 513.261719 722.660156 516.613281 721.652344 C 519.964844 720.644531 523.289062 719.550781 526.585938 718.371094 C 529.878906 717.191406 533.144531 715.933594 536.375 714.589844 C 539.605469 713.246094 542.804688 711.820312 545.960938 710.316406 C 549.121094 708.808594 552.242188 707.222656 555.320312 705.558594 C 558.398438 703.894531 561.433594 702.15625 564.425781 700.335938 C 567.414062 698.519531 570.359375 696.628906 573.253906 694.660156 C 576.148438 692.691406 578.992188 690.652344 581.78125 688.542969 C 584.574219 686.429688 587.308594 684.25 589.992188 682 C 592.671875 679.75 595.292969 677.433594 597.855469 675.050781 C 600.421875 672.667969 602.921875 670.222656 605.359375 667.710938 C 607.800781 665.199219 610.175781 662.628906 612.484375 660 C 614.792969 657.371094 617.03125 654.683594 619.207031 651.9375 C 621.378906 649.195312 623.480469 646.398438 625.511719 643.546875 C 627.542969 640.695312 629.5 637.796875 631.382812 634.84375 C 633.265625 631.894531 635.074219 628.898438 636.804688 625.859375 C 638.535156 622.816406 640.191406 619.734375 641.765625 616.605469 C 643.339844 613.480469 644.835938 610.320312 646.25 607.117188 C 647.664062 603.914062 648.996094 600.679688 650.25 597.410156 C 651.5 594.144531 652.667969 590.84375 653.75 587.515625 C 654.832031 584.1875 655.832031 580.835938 656.746094 577.457031 C 657.660156 574.078125 658.484375 570.675781 659.226562 567.257812 C 659.96875 563.835938 660.621094 560.398438 661.1875 556.945312 C 661.753906 553.488281 662.234375 550.023438 662.625 546.546875 C 663.015625 543.066406 663.316406 539.582031 663.53125 536.089844 C 663.746094 532.59375 663.871094 529.097656 663.90625 525.597656 C 663.945312 522.097656 663.894531 518.601562 663.753906 515.101562 C 663.609375 511.605469 663.382812 508.113281 663.0625 504.628906 C 662.746094 501.140625 662.339844 497.667969 661.847656 494.203125 C 661.351562 490.738281 660.769531 487.285156 660.101562 483.851562 C 659.433594 480.414062 658.675781 477 657.835938 473.601562 C 656.992188 470.203125 656.066406 466.832031 655.050781 463.480469 Z M 655.050781 463.480469 " fill-opacity="1" fill-rule="nonzero"/><path fill="#0643f2" d="M 562.429688 635.183594 C 560.316406 636.929688 558.164062 638.625 555.96875 640.265625 C 553.769531 641.90625 551.535156 643.496094 549.261719 645.027344 C 546.988281 646.558594 544.675781 648.035156 542.332031 649.453125 C 539.984375 650.871094 537.605469 652.234375 535.191406 653.535156 C 532.777344 654.835938 530.335938 656.078125 527.859375 657.261719 C 525.386719 658.441406 522.882812 659.5625 520.355469 660.621094 C 517.824219 661.679688 515.273438 662.675781 512.695312 663.609375 C 510.117188 664.542969 507.515625 665.414062 504.894531 666.21875 C 502.273438 667.027344 499.636719 667.765625 496.976562 668.445312 C 494.320312 669.121094 491.648438 669.730469 488.960938 670.277344 C 486.273438 670.820312 483.574219 671.300781 480.863281 671.714844 C 478.152344 672.125 475.433594 672.472656 472.707031 672.75 C 469.976562 673.03125 467.246094 673.242188 464.507812 673.386719 C 461.769531 673.53125 459.027344 673.609375 456.285156 673.621094 C 453.542969 673.628906 450.804688 673.574219 448.066406 673.449219 C 445.324219 673.324219 442.589844 673.132812 439.863281 672.875 C 437.132812 672.617188 434.410156 672.292969 431.695312 671.902344 C 428.980469 671.507812 426.28125 671.050781 423.589844 670.527344 C 420.898438 670 418.21875 669.410156 415.558594 668.753906 C 412.894531 668.097656 410.25 667.375 407.625 666.589844 C 404.996094 665.804688 402.390625 664.953125 399.804688 664.039062 C 397.21875 663.125 394.660156 662.148438 392.121094 661.109375 C 389.585938 660.070312 387.074219 658.96875 384.589844 657.804688 C 382.109375 656.644531 379.65625 655.421875 377.230469 654.136719 C 374.808594 652.851562 372.417969 651.511719 370.0625 650.109375 C 367.703125 648.710938 365.382812 647.25 363.097656 645.738281 C 360.8125 644.222656 358.5625 642.652344 356.355469 641.027344 C 354.144531 639.402344 351.980469 637.722656 349.851562 635.992188 C 347.726562 634.261719 345.644531 632.476562 343.605469 630.644531 C 341.566406 628.808594 339.574219 626.925781 337.628906 624.996094 C 335.679688 623.0625 333.785156 621.085938 331.933594 619.0625 C 330.085938 617.035156 328.285156 614.96875 326.539062 612.855469 C 324.792969 610.742188 323.097656 608.585938 321.457031 606.390625 C 319.8125 604.195312 318.226562 601.957031 316.695312 599.683594 C 315.164062 597.410156 313.6875 595.101562 312.269531 592.753906 C 310.851562 590.40625 309.488281 588.027344 308.1875 585.613281 C 306.886719 583.199219 305.644531 580.753906 304.460938 578.28125 C 303.28125 575.808594 302.160156 573.304688 301.101562 570.773438 C 300.042969 568.246094 299.046875 565.691406 298.113281 563.113281 C 297.179688 560.535156 296.308594 557.9375 295.503906 555.316406 C 294.699219 552.695312 293.957031 550.054688 293.28125 547.398438 C 292.605469 544.738281 291.992188 542.066406 291.449219 539.378906 C 290.902344 536.691406 290.421875 533.992188 290.011719 531.28125 C 289.597656 528.570312 289.253906 525.851562 288.972656 523.125 C 288.695312 520.394531 288.480469 517.664062 288.335938 514.925781 C 288.191406 512.1875 288.113281 509.445312 288.105469 506.703125 C 288.09375 503.960938 288.152344 501.21875 288.273438 498.480469 C 288.398438 495.742188 288.589844 493.007812 288.847656 490.277344 C 289.105469 487.546875 289.433594 484.824219 289.824219 482.109375 C 290.214844 479.398438 290.675781 476.695312 291.199219 474.003906 C 291.722656 471.3125 292.3125 468.632812 292.96875 465.972656 C 293.625 463.308594 294.347656 460.664062 295.132812 458.039062 C 295.917969 455.410156 296.769531 452.804688 297.683594 450.21875 C 298.597656 447.632812 299.574219 445.070312 300.613281 442.535156 C 301.652344 439.996094 302.753906 437.488281 303.917969 435.003906 C 305.082031 432.519531 306.304688 430.066406 307.585938 427.644531 C 308.871094 425.21875 310.214844 422.828125 311.613281 420.472656 C 313.015625 418.113281 314.472656 415.792969 315.988281 413.507812 C 317.5 411.222656 319.070312 408.972656 320.695312 406.765625 C 322.320312 404.558594 324 402.390625 325.730469 400.261719 C 327.460938 398.136719 329.246094 396.054688 331.078125 394.015625 C 332.914062 391.976562 334.796875 389.984375 336.726562 388.039062 C 338.660156 386.089844 340.636719 384.191406 342.660156 382.34375 C 344.6875 380.496094 346.753906 378.695312 348.867188 376.949219 C 350.980469 375.199219 353.136719 373.507812 355.332031 371.863281 C 357.527344 370.222656 359.761719 368.636719 362.035156 367.101562 C 364.3125 365.570312 366.621094 364.097656 368.96875 362.675781 C 371.3125 361.257812 373.695312 359.898438 376.109375 358.597656 C 378.519531 357.292969 380.964844 356.054688 383.4375 354.871094 C 385.914062 353.6875 388.414062 352.570312 390.945312 351.507812 C 393.472656 350.449219 396.027344 349.453125 398.605469 348.519531 C 401.183594 347.585938 403.785156 346.71875 406.40625 345.910156 C 409.023438 345.105469 411.664062 344.363281 414.320312 343.6875 C 416.980469 343.011719 419.652344 342.402344 422.339844 341.855469 C 425.027344 341.308594 427.726562 340.832031 430.4375 340.417969 C 433.144531 340.007812 435.867188 339.660156 438.59375 339.382812 C 441.320312 339.101562 444.054688 338.890625 446.792969 338.746094 C 449.53125 338.601562 452.269531 338.523438 455.011719 338.511719 C 457.753906 338.5 460.496094 338.558594 463.234375 338.683594 C 465.972656 338.808594 468.707031 339 471.4375 339.257812 C 474.167969 339.515625 476.890625 339.839844 479.605469 340.230469 C 482.316406 340.625 485.019531 341.082031 487.710938 341.609375 C 490.402344 342.132812 493.078125 342.722656 495.742188 343.378906 C 498.402344 344.035156 501.050781 344.757812 503.675781 345.542969 C 506.304688 346.328125 508.910156 347.179688 511.492188 348.09375 C 514.078125 349.007812 516.640625 349.984375 519.175781 351.023438 C 521.714844 352.0625 524.226562 353.164062 526.707031 354.328125 C 529.191406 355.492188 531.644531 356.714844 534.066406 357.996094 C 536.492188 359.28125 538.882812 360.621094 541.238281 362.023438 C 543.59375 363.425781 545.917969 364.882812 548.203125 366.398438 C 550.488281 367.914062 552.734375 369.480469 554.945312 371.105469 C 557.152344 372.734375 559.320312 374.410156 561.445312 376.140625 C 563.574219 377.875 565.65625 379.65625 567.695312 381.492188 C 569.730469 383.324219 571.722656 385.207031 573.671875 387.140625 C 575.617188 389.070312 577.515625 391.046875 579.363281 393.074219 C 581.210938 395.097656 583.011719 397.167969 584.757812 399.28125 C 586.507812 401.394531 588.199219 403.546875 589.84375 405.746094 C 591.484375 407.941406 593.070312 410.175781 594.601562 412.449219 C 596.136719 414.722656 597.609375 417.035156 599.027344 419.382812 C 600.449219 421.726562 601.808594 424.109375 603.109375 426.523438 C 604.410156 428.933594 605.652344 431.378906 606.835938 433.851562 C 608.015625 436.328125 609.136719 438.828125 610.195312 441.359375 C 611.253906 443.886719 612.25 446.441406 613.183594 449.019531 C 614.117188 451.597656 614.988281 454.199219 615.792969 456.820312 C 616.597656 459.441406 617.339844 462.078125 618.015625 464.738281 C 618.691406 467.394531 619.304688 470.066406 619.847656 472.753906 C 620.394531 475.441406 620.871094 478.140625 621.285156 480.851562 C 621.699219 483.5625 622.042969 486.28125 622.324219 489.007812 C 622.601562 491.738281 622.8125 494.46875 622.957031 497.207031 C 623.105469 499.945312 623.179688 502.6875 623.191406 505.429688 C 623.203125 508.171875 623.144531 510.914062 623.019531 513.652344 C 622.898438 516.390625 622.707031 519.125 622.449219 521.855469 C 622.1875 524.585938 621.863281 527.308594 621.472656 530.019531 C 621.078125 532.734375 620.621094 535.4375 620.097656 538.128906 C 619.574219 540.820312 618.980469 543.496094 618.324219 546.160156 C 617.667969 548.824219 616.949219 551.46875 616.164062 554.09375 C 615.375 556.722656 614.527344 559.328125 613.613281 561.914062 C 612.699219 564.5 611.722656 567.058594 610.683594 569.597656 C 609.644531 572.132812 608.542969 574.644531 607.378906 577.128906 C 606.214844 579.613281 604.992188 582.066406 603.710938 584.488281 C 602.425781 586.910156 601.085938 589.300781 599.683594 591.660156 C 598.28125 594.015625 596.824219 596.335938 595.308594 598.625 C 593.796875 600.910156 592.226562 603.15625 590.601562 605.363281 C 588.976562 607.574219 587.296875 609.742188 585.566406 611.867188 C 583.835938 613.992188 582.050781 616.078125 580.21875 618.117188 C 578.386719 620.152344 576.503906 622.148438 574.570312 624.09375 C 572.640625 626.039062 570.660156 627.9375 568.636719 629.785156 C 566.613281 631.636719 564.542969 633.433594 562.429688 635.183594 Z M 562.429688 635.183594 " fill-opacity="1" fill-rule="nonzero"/><path fill="#000f16" d="M 597.816406 433.179688 C 599.28125 435.496094 600.691406 437.84375 602.039062 440.230469 C 603.390625 442.617188 604.679688 445.03125 605.914062 447.480469 C 607.144531 449.929688 608.316406 452.40625 609.425781 454.914062 C 610.535156 457.417969 611.582031 459.949219 612.570312 462.507812 C 613.554688 465.0625 614.476562 467.644531 615.335938 470.246094 C 616.195312 472.847656 616.988281 475.472656 617.71875 478.113281 C 618.449219 480.753906 619.113281 483.414062 619.714844 486.085938 C 620.316406 488.761719 620.847656 491.449219 621.316406 494.148438 C 621.785156 496.851562 622.1875 499.558594 622.519531 502.28125 C 622.855469 505 623.125 507.726562 623.324219 510.460938 C 623.523438 513.195312 623.660156 515.929688 623.726562 518.671875 C 623.792969 521.410156 623.792969 524.152344 623.722656 526.890625 C 623.65625 529.628906 623.519531 532.367188 623.316406 535.101562 C 623.117188 537.832031 622.847656 540.558594 622.511719 543.28125 C 622.175781 546 621.773438 548.710938 621.300781 551.410156 C 620.832031 554.109375 620.296875 556.796875 619.695312 559.472656 C 619.097656 562.144531 618.429688 564.804688 617.699219 567.445312 C 616.964844 570.085938 616.171875 572.707031 615.308594 575.308594 C 614.449219 577.914062 613.527344 580.492188 612.539062 583.050781 C 611.550781 585.605469 610.503906 588.136719 609.390625 590.640625 C 608.28125 593.148438 607.109375 595.625 605.875 598.070312 C 604.644531 600.519531 603.351562 602.9375 602 605.320312 C 600.648438 607.703125 599.238281 610.054688 597.773438 612.371094 C 596.304688 614.683594 594.785156 616.960938 593.203125 619.203125 C 591.625 621.445312 589.992188 623.644531 588.308594 625.804688 C 586.621094 627.964844 584.882812 630.082031 583.089844 632.15625 C 581.300781 634.230469 579.460938 636.261719 577.570312 638.246094 C 575.679688 640.230469 573.742188 642.167969 571.757812 644.054688 C 569.773438 645.945312 567.742188 647.785156 565.664062 649.574219 C 563.589844 651.363281 561.472656 653.101562 559.3125 654.789062 C 557.148438 656.472656 554.949219 658.105469 552.707031 659.683594 C 550.464844 661.261719 548.1875 662.78125 545.871094 664.25 C 543.558594 665.714844 541.207031 667.121094 538.820312 668.472656 C 536.4375 669.824219 534.019531 671.113281 531.570312 672.34375 C 529.125 673.578125 526.648438 674.746094 524.140625 675.859375 C 521.636719 676.96875 519.105469 678.015625 516.546875 679 C 513.988281 679.988281 511.410156 680.910156 508.808594 681.769531 C 506.203125 682.628906 503.582031 683.421875 500.941406 684.152344 C 498.300781 684.882812 495.640625 685.546875 492.96875 686.148438 C 490.292969 686.75 487.605469 687.28125 484.90625 687.75 C 482.207031 688.21875 479.496094 688.621094 476.777344 688.953125 C 474.054688 689.289062 471.328125 689.558594 468.597656 689.757812 C 465.863281 689.957031 463.125 690.09375 460.386719 690.160156 C 457.648438 690.226562 454.90625 690.226562 452.167969 690.15625 C 449.425781 690.089844 446.691406 689.953125 443.957031 689.753906 C 441.226562 689.550781 438.5 689.28125 435.777344 688.945312 C 433.058594 688.609375 430.347656 688.207031 427.648438 687.738281 C 424.949219 687.265625 422.261719 686.730469 419.585938 686.128906 C 416.914062 685.53125 414.257812 684.863281 411.613281 684.132812 C 408.972656 683.398438 406.351562 682.605469 403.75 681.742188 C 401.148438 680.882812 398.570312 679.960938 396.011719 678.972656 C 393.457031 677.984375 390.925781 676.9375 388.417969 675.824219 C 385.914062 674.714844 383.4375 673.542969 380.988281 672.308594 C 378.542969 671.078125 376.125 669.785156 373.742188 668.433594 C 371.359375 667.082031 369.007812 665.671875 366.691406 664.207031 C 364.378906 662.738281 362.101562 661.214844 359.859375 659.636719 C 357.621094 658.058594 355.417969 656.425781 353.261719 654.738281 C 351.101562 653.050781 348.980469 651.3125 346.90625 649.523438 C 344.832031 647.730469 342.804688 645.890625 340.820312 644 C 338.835938 642.109375 336.898438 640.171875 335.007812 638.1875 C 333.117188 636.203125 331.28125 634.171875 329.488281 632.097656 C 327.699219 630.019531 325.960938 627.902344 324.277344 625.742188 C 322.589844 623.578125 320.960938 621.378906 319.382812 619.136719 C 317.804688 616.894531 316.285156 614.617188 314.816406 612.300781 C 313.351562 609.984375 311.945312 607.636719 310.59375 605.25 C 309.242188 602.867188 307.953125 600.449219 306.722656 598 C 305.488281 595.550781 304.320312 593.074219 303.207031 590.570312 C 302.097656 588.0625 301.050781 585.53125 300.066406 582.972656 C 299.078125 580.417969 298.15625 577.835938 297.296875 575.234375 C 296.4375 572.632812 295.644531 570.007812 294.914062 567.367188 C 294.183594 564.726562 293.519531 562.066406 292.917969 559.394531 C 292.320312 556.71875 291.785156 554.03125 291.316406 551.332031 C 290.847656 548.632812 290.449219 545.921875 290.113281 543.199219 C 289.777344 540.480469 289.511719 537.753906 289.308594 535.019531 C 289.109375 532.285156 288.976562 529.550781 288.910156 526.808594 C 288.839844 524.070312 288.84375 521.332031 288.910156 518.589844 C 288.976562 515.851562 289.113281 513.113281 289.316406 510.378906 C 289.519531 507.648438 289.785156 504.921875 290.125 502.199219 C 290.460938 499.480469 290.863281 496.769531 291.332031 494.070312 C 291.800781 491.371094 292.335938 488.683594 292.9375 486.007812 C 293.539062 483.335938 294.203125 480.675781 294.9375 478.035156 C 295.667969 475.394531 296.464844 472.773438 297.324219 470.171875 C 298.183594 467.570312 299.105469 464.988281 300.09375 462.433594 C 301.082031 459.875 302.128906 457.34375 303.242188 454.839844 C 304.351562 452.332031 305.523438 449.855469 306.757812 447.410156 C 307.988281 444.960938 309.28125 442.546875 310.632812 440.160156 C 311.984375 437.777344 313.394531 435.425781 314.859375 433.113281 C 316.328125 430.796875 317.851562 428.519531 319.429688 426.277344 C 321.007812 424.039062 322.640625 421.835938 324.328125 419.675781 C 326.011719 417.515625 327.75 415.398438 329.542969 413.324219 C 331.332031 411.25 333.171875 409.21875 335.0625 407.234375 C 336.953125 405.25 338.890625 403.3125 340.875 401.425781 C 342.863281 399.535156 344.894531 397.695312 346.96875 395.90625 C 349.042969 394.117188 351.164062 392.378906 353.324219 390.691406 C 355.484375 389.007812 357.683594 387.375 359.925781 385.796875 C 362.167969 384.21875 364.445312 382.699219 366.761719 381.234375 C 369.078125 379.765625 371.425781 378.359375 373.8125 377.007812 C 376.195312 375.660156 378.613281 374.367188 381.0625 373.136719 C 383.511719 371.902344 385.988281 370.734375 388.492188 369.625 C 391 368.511719 393.53125 367.464844 396.085938 366.480469 C 398.644531 365.492188 401.222656 364.570312 403.828125 363.710938 C 406.429688 362.851562 409.050781 362.058594 411.691406 361.328125 C 414.332031 360.597656 416.992188 359.933594 419.664062 359.332031 C 422.339844 358.734375 425.027344 358.199219 427.726562 357.730469 C 430.429688 357.261719 433.136719 356.863281 435.859375 356.527344 C 438.578125 356.191406 441.304688 355.925781 444.039062 355.722656 C 446.769531 355.523438 449.507812 355.386719 452.246094 355.320312 C 454.988281 355.253906 457.726562 355.253906 460.464844 355.324219 C 463.207031 355.390625 465.941406 355.527344 468.675781 355.730469 C 471.410156 355.929688 474.136719 356.199219 476.855469 356.535156 C 479.574219 356.871094 482.285156 357.277344 484.984375 357.746094 C 487.683594 358.214844 490.371094 358.75 493.046875 359.351562 C 495.71875 359.953125 498.378906 360.617188 501.019531 361.347656 C 503.660156 362.082031 506.28125 362.875 508.882812 363.738281 C 511.484375 364.597656 514.066406 365.519531 516.621094 366.507812 C 519.179688 367.496094 521.710938 368.542969 524.214844 369.65625 C 526.71875 370.765625 529.195312 371.9375 531.644531 373.171875 C 534.089844 374.40625 536.507812 375.695312 538.890625 377.046875 C 541.277344 378.398438 543.625 379.808594 545.941406 381.277344 C 548.253906 382.742188 550.53125 384.265625 552.773438 385.84375 C 555.011719 387.421875 557.214844 389.054688 559.375 390.742188 C 561.535156 392.429688 563.652344 394.167969 565.726562 395.957031 C 567.800781 397.75 569.832031 399.589844 571.816406 401.480469 C 573.800781 403.371094 575.738281 405.308594 577.625 407.292969 C 579.515625 409.277344 581.355469 411.308594 583.144531 413.386719 C 584.933594 415.460938 586.671875 417.578125 588.355469 419.742188 C 590.042969 421.902344 591.671875 424.101562 593.25 426.34375 C 594.828125 428.585938 596.351562 430.863281 597.816406 433.179688 Z M 597.816406 433.179688 " fill-opacity="1" fill-rule="nonzero"/><path fill="#ffffff" d="M 79.875 834.125 C 79.328125 834.578125 78.742188 834.972656 78.117188 835.308594 C 77.492188 835.648438 76.839844 835.921875 76.160156 836.128906 C 75.480469 836.339844 74.785156 836.480469 74.078125 836.550781 C 73.371094 836.625 72.664062 836.628906 71.957031 836.558594 C 71.25 836.492188 70.554688 836.359375 69.875 836.152344 C 69.195312 835.949219 68.539062 835.679688 67.910156 835.347656 C 67.28125 835.015625 66.695312 834.625 66.140625 834.175781 C 65.589844 833.726562 65.089844 833.226562 64.636719 832.675781 C 64.183594 832.128906 63.789062 831.542969 63.453125 830.917969 C 63.113281 830.289062 62.839844 829.636719 62.632812 828.957031 C 62.421875 828.277344 62.28125 827.585938 62.207031 826.878906 C 62.136719 826.167969 62.132812 825.460938 62.199219 824.753906 C 62.265625 824.046875 62.398438 823.351562 62.601562 822.667969 C 62.804688 821.988281 63.070312 821.332031 63.402344 820.703125 C 63.734375 820.074219 64.125 819.484375 64.574219 818.929688 C 65.019531 818.378906 65.519531 817.875 66.066406 817.417969 L 261.128906 656.136719 C 261.675781 655.679688 262.265625 655.285156 262.890625 654.949219 C 263.515625 654.609375 264.167969 654.335938 264.851562 654.125 C 265.53125 653.917969 266.222656 653.777344 266.933594 653.703125 C 267.640625 653.632812 268.347656 653.628906 269.054688 653.695312 C 269.765625 653.761719 270.460938 653.898438 271.140625 654.101562 C 271.824219 654.308594 272.476562 654.574219 273.105469 654.910156 C 273.734375 655.242188 274.328125 655.632812 274.878906 656.082031 C 275.429688 656.53125 275.933594 657.03125 276.386719 657.582031 C 276.839844 658.128906 277.234375 658.714844 277.574219 659.34375 C 277.910156 659.96875 278.183594 660.621094 278.394531 661.300781 C 278.601562 661.980469 278.742188 662.675781 278.816406 663.382812 C 278.886719 664.09375 278.890625 664.800781 278.824219 665.507812 C 278.757812 666.21875 278.621094 666.914062 278.417969 667.59375 C 278.210938 668.277344 277.945312 668.929688 277.609375 669.558594 C 277.277344 670.1875 276.886719 670.777344 276.4375 671.332031 C 275.988281 671.882812 275.488281 672.382812 274.941406 672.839844 Z M 79.875 834.125 " fill-opacity="0.298" fill-rule="nonzero"/><path fill="#3aedb1" d="M 558.6875 546.71875 C 557.769531 546.71875 556.859375 546.628906 555.957031 546.453125 C 555.058594 546.273438 554.183594 546.011719 553.332031 545.660156 C 552.484375 545.3125 551.675781 544.882812 550.910156 544.375 C 550.144531 543.867188 549.4375 543.292969 548.785156 542.644531 C 548.132812 542 547.546875 541.296875 547.035156 540.535156 C 546.519531 539.777344 546.082031 538.972656 545.726562 538.128906 C 545.367188 537.28125 545.09375 536.410156 544.910156 535.511719 C 544.722656 534.613281 544.625 533.703125 544.613281 532.785156 C 544.195312 526.792969 543.066406 520.941406 541.230469 515.222656 C 539.390625 509.503906 536.898438 504.089844 533.746094 498.976562 C 520.371094 477.695312 496.71875 466.914062 463.417969 466.914062 L 462.738281 466.914062 C 390.863281 467.226562 380.96875 527.457031 380.585938 530.03125 C 380.449219 530.949219 380.226562 531.84375 379.914062 532.714844 C 379.597656 533.585938 379.203125 534.417969 378.726562 535.210938 C 378.25 536.003906 377.699219 536.742188 377.078125 537.429688 C 376.453125 538.113281 375.769531 538.730469 375.027344 539.28125 C 374.28125 539.832031 373.492188 540.304688 372.652344 540.699219 C 371.816406 541.09375 370.945312 541.402344 370.046875 541.625 C 369.148438 541.847656 368.238281 541.980469 367.3125 542.027344 C 366.386719 542.070312 365.46875 542.023438 364.554688 541.882812 C 363.636719 541.746094 362.746094 541.519531 361.875 541.207031 C 361.003906 540.890625 360.171875 540.496094 359.378906 540.019531 C 358.585938 539.539062 357.847656 538.988281 357.160156 538.367188 C 356.476562 537.742188 355.859375 537.058594 355.3125 536.3125 C 354.761719 535.566406 354.289062 534.773438 353.894531 533.9375 C 353.503906 533.097656 353.195312 532.230469 352.972656 531.332031 C 352.75 530.433594 352.617188 529.519531 352.578125 528.597656 C 352.535156 527.671875 352.582031 526.75 352.722656 525.835938 C 357.230469 495.859375 386.003906 439.097656 462.601562 438.75 L 463.402344 438.75 C 570.441406 438.75 572.742188 531.53125 572.757812 532.453125 C 572.769531 533.378906 572.6875 534.296875 572.519531 535.207031 C 572.347656 536.117188 572.089844 537 571.746094 537.859375 C 571.402344 538.71875 570.976562 539.535156 570.472656 540.308594 C 569.964844 541.082031 569.390625 541.800781 568.742188 542.464844 C 568.097656 543.125 567.390625 543.71875 566.628906 544.238281 C 565.863281 544.761719 565.058594 545.207031 564.207031 545.570312 C 563.355469 545.933594 562.476562 546.210938 561.570312 546.398438 C 560.667969 546.589844 559.75 546.691406 558.824219 546.703125 Z M 558.6875 546.71875 " fill-opacity="1" fill-rule="nonzero"/><path fill="#ffffff" d="M 494.785156 408.5625 C 493.183594 388.515625 468.085938 386.128906 452.988281 385.328125 C 437.554688 384.527344 415.820312 385.328125 376.597656 410.601562 C 349.953125 427.722656 327.136719 461.84375 321.824219 493.628906 C 318.203125 515.4375 318.480469 546.980469 336.890625 562.761719 C 354.53125 577.878906 382.695312 569.292969 394.695312 551.386719 C 407.339844 532.507812 403.578125 506.101562 410.910156 484.992188 C 419.390625 460.605469 430.796875 446.1875 454.152344 437.859375 C 468.121094 432.949219 496.421875 429.132812 494.785156 408.5625 Z M 494.785156 408.5625 " fill-opacity="0.298" fill-rule="nonzero"/><path fill="#d5e9f2" d="M 1022.867188 952.996094 C 1022.867188 952.996094 1099.5 1042.921875 1136.230469 1069.277344 C 1164.09375 1089.289062 1189.609375 986.457031 1094.066406 891.460938 C 1000.625 798.574219 922.410156 781.433594 922.410156 781.433594 Z M 1022.867188 952.996094 " fill-opacity="1" fill-rule="nonzero"/><path fill="#a8d7e9" d="M 1094.066406 891.460938 C 1000.625 798.574219 922.410156 781.4375 922.410156 781.4375 L 930.769531 795.71875 C 960.726562 812.210938 999.199219 838.511719 1040.648438 879.738281 C 1104.84375 943.558594 1114.371094 1010.910156 1105.28125 1042.175781 C 1114.96875 1051.925781 1125.285156 1060.957031 1136.230469 1069.277344 C 1164.042969 1089.289062 1189.609375 986.457031 1094.066406 891.460938 Z M 1094.066406 891.460938 " fill-opacity="1" fill-rule="nonzero"/></svg>